<svg xmlns="http://www.w3.org/2000/svg" xmlns:xlink="http://www.w3.org/1999/xlink" width="500" zoomAndPan="magnify" viewBox="0 0 375 374.999991" height="500" preserveAspectRatio="xMidYMid meet" version="1.0"><defs><g/><clipPath id="32a30e707a"><path d="M 234.460938 200.09375 L 275.761719 200.09375 L 275.761719 241.394531 L 234.460938 241.394531 Z M 234.460938 200.09375 " clip-rule="nonzero"/></clipPath><clipPath id="51dcdb7be3"><path d="M 255.113281 200.09375 C 243.707031 200.09375 234.460938 209.339844 234.460938 220.746094 C 234.460938 232.148438 243.707031 241.394531 255.113281 241.394531 C 266.515625 241.394531 275.761719 232.148438 275.761719 220.746094 C 275.761719 209.339844 266.515625 200.09375 255.113281 200.09375 Z M 255.113281 200.09375 " clip-rule="nonzero"/></clipPath><clipPath id="7772147929"><path d="M 68.042969 65.296875 L 141.863281 65.296875 L 141.863281 139.117188 L 68.042969 139.117188 Z M 68.042969 65.296875 " clip-rule="nonzero"/></clipPath><clipPath id="f8c30a47a2"><path d="M 104.953125 65.296875 C 84.566406 65.296875 68.042969 81.820312 68.042969 102.207031 C 68.042969 122.59375 84.566406 139.117188 104.953125 139.117188 C 125.335938 139.117188 141.863281 122.59375 141.863281 102.207031 C 141.863281 81.820312 125.335938 65.296875 104.953125 65.296875 Z M 104.953125 65.296875 " clip-rule="nonzero"/></clipPath><clipPath id="f44ae08ed6"><path d="M 245.054688 212.023438 L 262.5 212.023438 L 262.5 229.46875 L 245.054688 229.46875 Z M 245.054688 212.023438 " clip-rule="nonzero"/></clipPath><clipPath id="f075c91597"><path d="M 253.777344 212.023438 C 248.960938 212.023438 245.054688 215.925781 245.054688 220.746094 C 245.054688 225.5625 248.960938 229.46875 253.777344 229.46875 C 258.59375 229.46875 262.5 225.5625 262.5 220.746094 C 262.5 215.925781 258.59375 212.023438 253.777344 212.023438 Z M 253.777344 212.023438 " clip-rule="nonzero"/></clipPath></defs><rect x="-37.5" width="450" fill="#ffffff" y="-37.499999" height="449.999989" fill-opacity="1"/><rect x="-37.5" width="450" fill="#ffffff" y="-37.499999" height="449.999989" fill-opacity="1"/><g fill="#000000" fill-opacity="1"><g transform="translate(108.58179, 221.207659)"><g><path d="M 8.640625 -118.75 L 45.484375 -118.75 C 56.617188 -118.75 65.492188 -116.375 72.109375 -111.625 C 78.734375 -106.875 82.046875 -99.171875 82.046875 -88.515625 C 82.046875 -76.617188 77.101562 -68.128906 67.21875 -63.046875 C 84.101562 -60.066406 92.546875 -50.085938 92.546875 -33.109375 C 92.546875 -23.128906 89.09375 -15.113281 82.1875 -9.0625 C 75.28125 -3.019531 65.78125 0 53.6875 0 L 8.640625 0 Z M 35.703125 -72.25 L 37.859375 -72.25 C 43.898438 -72.25 48.40625 -73.304688 51.375 -75.421875 C 54.351562 -77.535156 55.84375 -80.988281 55.84375 -85.78125 C 55.84375 -93.84375 49.847656 -97.875 37.859375 -97.875 L 35.703125 -97.875 Z M 35.703125 -20.875 L 44.1875 -20.875 C 57.425781 -20.875 64.046875 -25.285156 64.046875 -34.109375 C 64.046875 -39.390625 62.390625 -43.179688 59.078125 -45.484375 C 55.773438 -47.785156 50.8125 -48.9375 44.1875 -48.9375 L 35.703125 -48.9375 Z M 35.703125 -20.875 "/></g></g></g><g fill="#000000" fill-opacity="1"><g transform="translate(154.68124, 220.849711)"><g><path d="M 35.703125 -73.703125 L 35.703125 0 L 8.640625 0 L 8.640625 -118.75 L 35.703125 -118.75 L 82.90625 -45.046875 L 83.203125 -45.046875 L 83.203125 -118.75 L 110.25 -118.75 L 110.25 0 L 83.203125 0 L 35.984375 -73.703125 Z M 35.703125 -73.703125 "/></g></g></g><g clip-path="url(#32a30e707a)"><g clip-path="url(#51dcdb7be3)"><path fill="#ffffff" d="M 234.460938 200.09375 L 275.761719 200.09375 L 275.761719 241.394531 L 234.460938 241.394531 Z M 234.460938 200.09375 " fill-opacity="1" fill-rule="nonzero"/></g></g><g clip-path="url(#7772147929)"><g clip-path="url(#f8c30a47a2)"><path fill="#ffffff" d="M 68.042969 65.296875 L 141.863281 65.296875 L 141.863281 139.117188 L 68.042969 139.117188 Z M 68.042969 65.296875 " fill-opacity="1" fill-rule="nonzero"/></g></g><g clip-path="url(#f44ae08ed6)"><g clip-path="url(#f075c91597)"><path fill="#000000" d="M 245.054688 212.023438 L 262.5 212.023438 L 262.5 229.46875 L 245.054688 229.46875 Z M 245.054688 212.023438 " fill-opacity="1" fill-rule="nonzero"/></g></g><g fill="#000000" fill-opacity="1"><g transform="translate(158.731307, 249.18007)"><g><path d="M 8.28125 -6.515625 C 8.757812 -6.191406 9.140625 -5.769531 9.421875 -5.25 C 9.703125 -4.738281 9.84375 -4.175781 9.84375 -3.5625 C 9.84375 -3.0625 9.742188 -2.59375 9.546875 -2.15625 C 9.359375 -1.726562 9.097656 -1.351562 8.765625 -1.03125 C 8.441406 -0.71875 8.0625 -0.46875 7.625 -0.28125 C 7.195312 -0.09375 6.738281 0 6.25 0 L 0.8125 0 L 0.8125 -11.96875 L 6.078125 -11.96875 C 6.523438 -11.96875 6.945312 -11.878906 7.34375 -11.703125 C 7.738281 -11.523438 8.082031 -11.289062 8.375 -11 C 8.675781 -10.707031 8.910156 -10.363281 9.078125 -9.96875 C 9.242188 -9.570312 9.328125 -9.148438 9.328125 -8.703125 C 9.328125 -8.222656 9.234375 -7.800781 9.046875 -7.4375 C 8.867188 -7.070312 8.613281 -6.765625 8.28125 -6.515625 Z M 3.375 -7.46875 L 6.078125 -7.46875 C 6.378906 -7.46875 6.632812 -7.570312 6.84375 -7.78125 C 7.0625 -8 7.171875 -8.265625 7.171875 -8.578125 C 7.171875 -8.878906 7.0625 -9.128906 6.84375 -9.328125 C 6.632812 -9.535156 6.378906 -9.640625 6.078125 -9.640625 L 3.375 -9.640625 Z M 6.25 -2.3125 C 6.582031 -2.3125 6.863281 -2.453125 7.09375 -2.734375 C 7.332031 -3.023438 7.453125 -3.363281 7.453125 -3.75 C 7.453125 -4.144531 7.332031 -4.472656 7.09375 -4.734375 C 6.863281 -5.003906 6.582031 -5.140625 6.25 -5.140625 L 3.375 -5.140625 L 3.375 -2.3125 Z M 6.25 -2.3125 "/></g></g></g><g fill="#000000" fill-opacity="1"><g transform="translate(171.49135, 249.18007)"><g><path d="M 3.359375 -2.3125 L 8.265625 -2.3125 L 8.265625 0 L 0.796875 0 L 0.796875 -11.96875 L 3.359375 -11.96875 Z M 3.359375 -2.3125 "/></g></g></g><g fill="#000000" fill-opacity="1"><g transform="translate(182.242957, 249.18007)"><g><path d="M 6.453125 -12.140625 C 7.253906 -12.140625 8.015625 -11.972656 8.734375 -11.640625 C 9.460938 -11.316406 10.09375 -10.875 10.625 -10.3125 C 11.15625 -9.75 11.578125 -9.09375 11.890625 -8.34375 C 12.203125 -7.601562 12.359375 -6.8125 12.359375 -5.96875 C 12.359375 -5.132812 12.203125 -4.34375 11.890625 -3.59375 C 11.578125 -2.84375 11.15625 -2.1875 10.625 -1.625 C 10.09375 -1.0625 9.460938 -0.613281 8.734375 -0.28125 C 8.015625 0.0507812 7.253906 0.21875 6.453125 0.21875 C 5.640625 0.21875 4.875 0.0507812 4.15625 -0.28125 C 3.4375 -0.613281 2.8125 -1.0625 2.28125 -1.625 C 1.75 -2.1875 1.328125 -2.84375 1.015625 -3.59375 C 0.710938 -4.34375 0.5625 -5.132812 0.5625 -5.96875 C 0.5625 -6.8125 0.710938 -7.601562 1.015625 -8.34375 C 1.328125 -9.09375 1.75 -9.75 2.28125 -10.3125 C 2.8125 -10.875 3.4375 -11.316406 4.15625 -11.640625 C 4.875 -11.972656 5.640625 -12.140625 6.453125 -12.140625 Z M 6.453125 -2.328125 C 6.910156 -2.328125 7.34375 -2.421875 7.75 -2.609375 C 8.15625 -2.804688 8.507812 -3.066406 8.8125 -3.390625 C 9.113281 -3.722656 9.347656 -4.109375 9.515625 -4.546875 C 9.691406 -4.992188 9.78125 -5.46875 9.78125 -5.96875 C 9.78125 -6.476562 9.691406 -6.953125 9.515625 -7.390625 C 9.347656 -7.835938 9.113281 -8.226562 8.8125 -8.5625 C 8.507812 -8.894531 8.15625 -9.15625 7.75 -9.34375 C 7.34375 -9.539062 6.910156 -9.640625 6.453125 -9.640625 C 5.984375 -9.640625 5.546875 -9.539062 5.140625 -9.34375 C 4.742188 -9.15625 4.390625 -8.894531 4.078125 -8.5625 C 3.773438 -8.226562 3.535156 -7.835938 3.359375 -7.390625 C 3.191406 -6.953125 3.109375 -6.476562 3.109375 -5.96875 C 3.109375 -5.46875 3.191406 -4.992188 3.359375 -4.546875 C 3.535156 -4.109375 3.773438 -3.722656 4.078125 -3.390625 C 4.390625 -3.066406 4.742188 -2.804688 5.140625 -2.609375 C 5.546875 -2.421875 5.984375 -2.328125 6.453125 -2.328125 Z M 6.453125 -2.328125 "/></g></g></g><g fill="#000000" fill-opacity="1"><g transform="translate(197.467138, 249.18007)"><g><path d="M 6.71875 -6.765625 L 11.234375 -6.765625 L 11.234375 -2.375 C 10.554688 -1.519531 9.804688 -0.875 8.984375 -0.4375 C 8.171875 0 7.3125 0.21875 6.40625 0.21875 C 5.601562 0.21875 4.835938 0.0507812 4.109375 -0.28125 C 3.390625 -0.613281 2.765625 -1.0625 2.234375 -1.625 C 1.710938 -2.1875 1.296875 -2.835938 0.984375 -3.578125 C 0.671875 -4.328125 0.515625 -5.125 0.515625 -5.96875 C 0.515625 -6.8125 0.671875 -7.601562 0.984375 -8.34375 C 1.296875 -9.09375 1.710938 -9.75 2.234375 -10.3125 C 2.765625 -10.875 3.390625 -11.316406 4.109375 -11.640625 C 4.835938 -11.972656 5.601562 -12.140625 6.40625 -12.140625 C 7.175781 -12.140625 7.898438 -12 8.578125 -11.71875 C 9.265625 -11.4375 9.925781 -10.96875 10.5625 -10.3125 L 9.078125 -8.5 C 8.609375 -8.9375 8.164062 -9.234375 7.75 -9.390625 C 7.332031 -9.546875 6.890625 -9.625 6.421875 -9.625 C 5.953125 -9.625 5.507812 -9.523438 5.09375 -9.328125 C 4.6875 -9.140625 4.332031 -8.878906 4.03125 -8.546875 C 3.726562 -8.222656 3.488281 -7.835938 3.3125 -7.390625 C 3.132812 -6.953125 3.046875 -6.476562 3.046875 -5.96875 C 3.046875 -5.46875 3.132812 -4.992188 3.3125 -4.546875 C 3.488281 -4.109375 3.726562 -3.722656 4.03125 -3.390625 C 4.332031 -3.066406 4.6875 -2.804688 5.09375 -2.609375 C 5.507812 -2.421875 5.953125 -2.328125 6.421875 -2.328125 C 6.835938 -2.328125 7.25 -2.398438 7.65625 -2.546875 C 8.070312 -2.703125 8.488281 -2.957031 8.90625 -3.3125 L 8.90625 -4.609375 L 6.71875 -4.609375 Z M 6.71875 -6.765625 "/></g></g></g><g fill="#000000" fill-opacity="1"><g transform="translate(211.601978, 249.18007)"><g/></g></g><g fill="#373737" fill-opacity="1"><g transform="translate(159.690574, 261.507227)"><g><path d="M 5.625 -5.984375 L 5.625 0 L 4.734375 0 L 1.390625 -4.59375 L 1.390625 0 L 0.46875 0 L 0.46875 -5.984375 L 1.40625 -5.984375 L 4.734375 -1.359375 L 4.734375 -5.984375 Z M 5.625 -5.984375 "/></g></g></g><g fill="#373737" fill-opacity="1"><g transform="translate(170.410497, 261.507227)"><g><path d="M 1.046875 0 L 0.09375 0 L 2.578125 -5.984375 L 3.546875 -5.984375 L 6.046875 0 L 5.09375 0 L 4.296875 -1.875 L 1.828125 -1.875 Z M 2.171875 -2.6875 L 3.96875 -2.6875 L 3.078125 -4.84375 Z M 2.171875 -2.6875 "/></g></g></g><g fill="#373737" fill-opacity="1"><g transform="translate(181.189506, 261.507227)"><g><path d="M 1.65625 -5.1875 L 0.046875 -5.1875 L 0.046875 -5.984375 L 4.171875 -5.984375 L 4.171875 -5.1875 L 2.546875 -5.1875 L 2.546875 0 L 1.65625 0 Z M 1.65625 -5.1875 "/></g></g></g><g fill="#373737" fill-opacity="1"><g transform="translate(190.195921, 261.507227)"><g><path d="M 2.09375 -5.25 L 2.09375 -0.71875 L 2.53125 -0.71875 L 2.53125 0 L 0.765625 0 L 0.765625 -0.71875 L 1.21875 -0.71875 L 1.21875 -5.25 L 0.765625 -5.25 L 0.765625 -5.984375 L 2.53125 -5.984375 L 2.53125 -5.25 Z M 2.09375 -5.25 "/></g></g></g><g fill="#373737" fill-opacity="1"><g transform="translate(198.113465, 261.507227)"><g><path d="M 3.25 -6.0625 C 3.65625 -6.0625 4.035156 -5.976562 4.390625 -5.8125 C 4.753906 -5.65625 5.066406 -5.4375 5.328125 -5.15625 C 5.597656 -4.875 5.8125 -4.546875 5.96875 -4.171875 C 6.125 -3.804688 6.203125 -3.414062 6.203125 -3 C 6.203125 -2.570312 6.125 -2.171875 5.96875 -1.796875 C 5.8125 -1.429688 5.597656 -1.109375 5.328125 -0.828125 C 5.054688 -0.546875 4.738281 -0.320312 4.375 -0.15625 C 4.019531 0 3.640625 0.078125 3.234375 0.078125 C 2.828125 0.078125 2.441406 0 2.078125 -0.15625 C 1.722656 -0.320312 1.410156 -0.546875 1.140625 -0.828125 C 0.878906 -1.109375 0.671875 -1.429688 0.515625 -1.796875 C 0.359375 -2.171875 0.28125 -2.570312 0.28125 -3 C 0.28125 -3.414062 0.359375 -3.804688 0.515625 -4.171875 C 0.671875 -4.546875 0.882812 -4.875 1.15625 -5.15625 C 1.425781 -5.4375 1.738281 -5.65625 2.09375 -5.8125 C 2.457031 -5.976562 2.84375 -6.0625 3.25 -6.0625 Z M 3.25 -0.765625 C 3.53125 -0.765625 3.796875 -0.820312 4.046875 -0.9375 C 4.296875 -1.050781 4.515625 -1.207031 4.703125 -1.40625 C 4.890625 -1.613281 5.035156 -1.851562 5.140625 -2.125 C 5.253906 -2.394531 5.3125 -2.6875 5.3125 -3 C 5.3125 -3.300781 5.253906 -3.585938 5.140625 -3.859375 C 5.035156 -4.128906 4.890625 -4.363281 4.703125 -4.5625 C 4.515625 -4.769531 4.296875 -4.929688 4.046875 -5.046875 C 3.796875 -5.160156 3.53125 -5.21875 3.25 -5.21875 C 2.957031 -5.21875 2.6875 -5.160156 2.4375 -5.046875 C 2.1875 -4.929688 1.96875 -4.769531 1.78125 -4.5625 C 1.601562 -4.363281 1.457031 -4.128906 1.34375 -3.859375 C 1.238281 -3.585938 1.1875 -3.300781 1.1875 -3 C 1.1875 -2.6875 1.238281 -2.394531 1.34375 -2.125 C 1.457031 -1.851562 1.601562 -1.613281 1.78125 -1.40625 C 1.96875 -1.207031 2.1875 -1.050781 2.4375 -0.9375 C 2.6875 -0.820312 2.957031 -0.765625 3.25 -0.765625 Z M 3.25 -0.765625 "/></g></g></g><g fill="#373737" fill-opacity="1"><g transform="translate(209.187912, 261.507227)"><g><path d="M 5.625 -5.984375 L 5.625 0 L 4.734375 0 L 1.390625 -4.59375 L 1.390625 0 L 0.46875 0 L 0.46875 -5.984375 L 1.40625 -5.984375 L 4.734375 -1.359375 L 4.734375 -5.984375 Z M 5.625 -5.984375 "/></g></g></g></svg>