<?xml version="1.0" standalone="no"?>
<svg xmlns:xlink="http://www.w3.org/1999/xlink" id="wave" style="transform:rotate(180deg); transition: 0.3s" viewBox="0 0 1440 490" version="1.1" xmlns="http://www.w3.org/2000/svg"><defs><linearGradient id="sw-gradient-0" x1="0" x2="0" y1="1" y2="0"><stop stop-color="rgba(193.883, 112.359, 86.176, 1)" offset="0%"/><stop stop-color="rgba(212.097, 188.453, 136.188, 1)" offset="100%"/></linearGradient></defs><path style="transform:translate(0, 0px); opacity:1" fill="url(#sw-gradient-0)" d="M0,245L240,204.2C480,163,960,82,1440,81.7C1920,82,2400,163,2880,228.7C3360,294,3840,343,4320,334.8C4800,327,5280,261,5760,269.5C6240,278,6720,359,7200,392C7680,425,8160,408,8640,334.8C9120,261,9600,131,10080,65.3C10560,0,11040,0,11520,16.3C12000,33,12480,65,12960,114.3C13440,163,13920,229,14400,261.3C14880,294,15360,294,15840,318.5C16320,343,16800,392,17280,416.5C17760,441,18240,441,18720,416.5C19200,392,19680,343,20160,269.5C20640,196,21120,98,21600,57.2C22080,16,22560,33,23040,57.2C23520,82,24000,114,24480,114.3C24960,114,25440,82,25920,130.7C26400,180,26880,310,27360,359.3C27840,408,28320,376,28800,334.8C29280,294,29760,245,30240,187.8C30720,131,31200,65,31680,32.7C32160,0,32640,0,33120,65.3C33600,131,34080,261,34320,326.7L34560,392L34560,490L34320,490C34080,490,33600,490,33120,490C32640,490,32160,490,31680,490C31200,490,30720,490,30240,490C29760,490,29280,490,28800,490C28320,490,27840,490,27360,490C26880,490,26400,490,25920,490C25440,490,24960,490,24480,490C24000,490,23520,490,23040,490C22560,490,22080,490,21600,490C21120,490,20640,490,20160,490C19680,490,19200,490,18720,490C18240,490,17760,490,17280,490C16800,490,16320,490,15840,490C15360,490,14880,490,14400,490C13920,490,13440,490,12960,490C12480,490,12000,490,11520,490C11040,490,10560,490,10080,490C9600,490,9120,490,8640,490C8160,490,7680,490,7200,490C6720,490,6240,490,5760,490C5280,490,4800,490,4320,490C3840,490,3360,490,2880,490C2400,490,1920,490,1440,490C960,490,480,490,240,490L0,490Z"/></svg>