<!--?xml version="1.0" standalone="no"?-->
              <svg id="sw-js-blob-svg" viewBox="0 0 100 100" xmlns="http://www.w3.org/2000/svg" version="1.1">
                    <defs> 
                        <linearGradient id="sw-gradient" x1="0" x2="1" y1="1" y2="0">
                            <stop id="stop1" stop-color="rgba(248, 117, 55, 1)" offset="0%"></stop>
                            <stop id="stop2" stop-color="rgba(251, 168, 31, 1)" offset="100%"></stop>
                        </linearGradient>
                    </defs>
                <path fill="url(#sw-gradient)" d="M23.5,-27.8C30.5,-22.1,36.4,-14.8,38.9,-6C41.5,2.7,40.8,12.9,35.7,19.5C30.6,26.1,21.1,29.1,12.4,30.8C3.7,32.5,-4.2,32.9,-11.6,30.7C-18.9,28.5,-25.6,23.6,-30.7,16.8C-35.8,9.9,-39.2,1.2,-37.6,-6.5C-36.1,-14.2,-29.5,-20.8,-22.4,-26.5C-15.3,-32.3,-7.7,-37.1,0.3,-37.4C8.2,-37.8,16.4,-33.6,23.5,-27.8Z" width="100%" height="100%" transform="translate(50 50)" stroke-width="0" style="transition: all 0.3s ease 0s;"></path>
              </svg>