<?xml version="1.0" standalone="no"?>
<svg xmlns:xlink="http://www.w3.org/1999/xlink" id="wave" style="transform:rotate(0deg); transition: 0.3s" viewBox="0 0 1440 490" version="1.1" xmlns="http://www.w3.org/2000/svg"><defs><linearGradient id="sw-gradient-0" x1="0" x2="0" y1="1" y2="0"><stop stop-color="rgba(132.409, 39.951, 10.257, 1)" offset="0%"/><stop stop-color="rgba(187.052, 42.519, 10.265, 1)" offset="100%"/></linearGradient></defs><path style="transform:translate(0, 0px); opacity:1" fill="url(#sw-gradient-0)" d="M0,147L1440,49L2880,441L4320,196L5760,245L7200,49L8640,392L10080,245L11520,343L12960,245L14400,441L15840,392L17280,392L18720,98L20160,98L21600,49L23040,147L24480,343L25920,0L27360,196L28800,343L30240,441L31680,343L33120,441L34560,147L34560,490L33120,490L31680,490L30240,490L28800,490L27360,490L25920,490L24480,490L23040,490L21600,490L20160,490L18720,490L17280,490L15840,490L14400,490L12960,490L11520,490L10080,490L8640,490L7200,490L5760,490L4320,490L2880,490L1440,490L0,490Z"/></svg>